# xmcd
#
# Track frame offsets:
#	150
#	15197
#	29925
#	45912
#	67127
#	78410
#	105987
#	116955
#	139420
#	154276
#	171969
#	190274
#
# Disc length: 2953 seconds
#
# Revision: 2
# Processed by: cddbd v1.4PL0 Copyright (c) Steve Scherf et al.
# Submitted via: CDmax 1.9
#
DISCID=a40b870c
DTITLE=Jason and The Scorchers - Midnight Roads and Stages Seen [CDOne)
DYEAR=1998
DGENRE=Country
TTITLE0=Self Sabotage
TTITLE1=My Heart Still Stands With You
TTITLE2=Last Time Around
TTITLE3=200 Proof Lovin'
TTITLE4=This Town Isn't Keeping You Down
TTITLE5=Good Things Come To Those Who Wait
TTITLE6=Blanket Of Sorrow
TTITLE7=Broken Whiskey Glass
TTITLE8=Absolutely Sweet Marie
TTITLE9=Ocean Of Doubt
TTITLE10=Pray For Me Mama (I'm A Gypsy Now)
TTITLE11=Somewhere Within
EXTD=
EXTT0=
EXTT1=
EXTT2=
EXTT3=
EXTT4=
EXTT5=
EXTT6=
EXTT7=
EXTT8=
EXTT9=
EXTT10=
EXTT11=
PLAYORDER=
